<svg width="23" height="22" viewBox="0 0 23 22" fill="none" xmlns="http://www.w3.org/2000/svg">
<g clip-path="url(#clip0_1_861)">
<path d="M15.6232 0C14.4503 0.0811245 13.0794 0.83187 12.2806 1.80949C11.5518 2.69636 10.9523 4.0136 11.1861 5.29372C12.4676 5.33359 13.7917 4.56497 14.5589 3.57085C15.2767 2.64548 15.8198 1.33649 15.6232 0Z" fill="white"/>
<path d="M20.2584 7.38103C19.1323 5.96891 17.5497 5.14941 16.055 5.14941C14.0819 5.14941 13.2473 6.09403 11.8764 6.09403C10.463 6.09403 9.38908 5.15216 7.68272 5.15216C6.0066 5.15216 4.22186 6.17653 3.09024 7.92827C1.49938 10.395 1.77163 15.0329 4.34974 18.9832C5.27236 20.3967 6.50435 21.9862 8.11584 21.9999C9.54996 22.0137 9.95421 21.0801 11.8971 21.0704C13.8399 21.0594 14.2084 22.0123 15.6398 21.9972C17.2527 21.9848 18.552 20.2235 19.4746 18.81C20.136 17.7966 20.3821 17.2865 20.895 16.1425C17.1647 14.7221 16.5665 9.41739 20.2584 7.38103Z" fill="white"/>
</g>
<defs>
<clipPath id="clip0_1_861">
<rect width="22" height="22" fill="white" transform="translate(0.5)"/>
</clipPath>
</defs>
</svg>
