<svg width="12" height="8" viewBox="0 0 12 8" fill="none" xmlns="http://www.w3.org/2000/svg">
<path d="M6.46824 7.33352L11.8083 1.99337C11.9319 1.86985 12 1.70498 12 1.52917C12 1.35337 11.9319 1.18849 11.8083 1.06498L11.4151 0.671718C11.1589 0.415818 10.7425 0.415818 10.4867 0.671718L6.00249 5.15597L1.51326 0.666742C1.38965 0.543231 1.22487 0.475036 1.04916 0.475036C0.873261 0.475036 0.708482 0.543231 0.584775 0.666742L0.191706 1.06001C0.0680971 1.18362 -3.81757e-08 1.3484 -4.58603e-08 1.5242C-5.3545e-08 1.7 0.0680971 1.86488 0.191706 1.98839L5.53664 7.33352C5.66064 7.45732 5.8262 7.52532 6.00219 7.52493C6.17888 7.52532 6.34434 7.45732 6.46824 7.33352Z" fill="#848484"/>
</svg>
