<svg width="23" height="22" viewBox="0 0 23 22" fill="none" xmlns="http://www.w3.org/2000/svg">
<g clip-path="url(#clip0_1_891)">
<path d="M21.6696 9.08783L12.696 9.0874C12.2997 9.0874 11.9785 9.40855 11.9785 9.80481V12.6715C11.9785 13.0676 12.2997 13.3889 12.6959 13.3889H17.7493C17.196 14.8249 16.1632 16.0276 14.8455 16.7917L17.0002 20.5218C20.4567 18.5228 22.5002 15.0153 22.5002 11.0889C22.5002 10.5298 22.459 10.1302 22.3766 9.68016C22.314 9.33825 22.0171 9.08783 21.6696 9.08783Z" fill="#167EE6"/>
<path d="M11.4999 17.6951C9.02689 17.6951 6.86797 16.3439 5.70846 14.3445L1.97852 16.4944C3.87666 19.7842 7.4325 21.9995 11.4999 21.9995C13.4953 21.9995 15.378 21.4623 16.9999 20.526V20.5209L14.8452 16.7908C13.8595 17.3624 12.719 17.6951 11.4999 17.6951Z" fill="#12B347"/>
<path d="M17 20.5262V20.5211L14.8452 16.791C13.8596 17.3626 12.7192 17.6954 11.5 17.6954V21.9997C13.4953 21.9997 15.3782 21.4625 17 20.5262Z" fill="#0F993E"/>
<path d="M4.80435 10.9998C4.80435 9.78079 5.13701 8.64035 5.70854 7.65478L1.9786 5.50488C1.0372 7.12167 0.5 8.99932 0.5 10.9998C0.5 13.0002 1.0372 14.8779 1.9786 16.4947L5.70854 14.3448C5.13701 13.3592 4.80435 12.2187 4.80435 10.9998Z" fill="#FFD500"/>
<path d="M11.4999 4.30435C13.1126 4.30435 14.5939 4.87738 15.7509 5.83056C16.0363 6.06568 16.4512 6.04871 16.7127 5.78725L18.7438 3.75611C19.0405 3.45946 19.0193 2.97387 18.7024 2.69895C16.7639 1.0172 14.2416 0 11.4999 0C7.4325 0 3.87666 2.21534 1.97852 5.50511L5.70846 7.65501C6.86797 5.65555 9.0269 4.30435 11.4999 4.30435Z" fill="#FF4B26"/>
<path d="M15.751 5.83056C16.0364 6.06568 16.4513 6.04871 16.7128 5.78725L18.7439 3.75611C19.0405 3.45946 19.0194 2.97387 18.7025 2.69895C16.764 1.01716 14.2417 0 11.5 0V4.30435C13.1126 4.30435 14.594 4.87738 15.751 5.83056Z" fill="#D93F21"/>
</g>
<defs>
<clipPath id="clip0_1_891">
<rect width="22" height="22" fill="white" transform="translate(0.5)"/>
</clipPath>
</defs>
</svg>
